<?xml version="1.0" encoding="UTF-8"?>
<svg width="36px" height="36px" viewBox="0 0 36 36" version="1.1" xmlns="http://www.w3.org/2000/svg" xmlns:xlink="http://www.w3.org/1999/xlink">
    <title>courier icon</title>
    <g id="Page-1" stroke="none" stroke-width="1" fill="none" fill-rule="evenodd">
        <g id="courier-icon" fill="#9D3789">
            <path d="M18.1248,36.0000409 C15.2328,36.0000409 12.384,35.3124 9.8136,33.996 C7.24777557,32.682414 5.03305479,30.774619 3.354,28.4316 C-1.27342373,21.9862242 -1.09897919,13.2620423 3.7824,7.0068 C4.6224,7.3764 5.3952,7.8852 6.0636,8.5128 C6.6324,9.0456 7.1268,9.6528 7.5336,10.3152 C8.0508,11.1552 8.4336,12.072 8.6676,13.0296 C7.38006023,15.460255 7.09078061,18.2970894 7.8612,20.9376 C8.63553595,23.5826501 10.4051172,25.8245212 12.798,27.192 C15.1992195,28.5665151 18.0369853,28.9652202 20.724,28.3056 C23.4064884,27.6496105 25.7319155,25.982818 27.2148,23.6532 L27.246,23.6532 L27.204,23.6268 C29.4336,19.4268 36.12,20.6244 35.3412,23.6268 L35.2848,23.6532 L35.352,23.6532 C34.152722,27.25711 31.8431542,30.3887629 28.7544,32.5992 C25.655018,34.8184804 21.9367954,36.0080765 18.1248,36.0000409 Z M35.3448,12.3696 L35.3136,12.3696 C36.0108,15.3372 29.4,16.5 27.1728,12.3228 L27.1776,12.3204 C26.2741236,10.900466 25.04699,9.71486744 23.5968,8.8608 C22.1256608,7.99402131 20.4690565,7.49049915 18.7644,7.392 C17.9510305,6.50788793 17.0260636,5.7333844 16.0128,5.088 C15.2478311,4.59581382 14.4273314,4.19583532 13.5684,3.8964 C12.6098141,3.55822414 11.6016619,3.38181779 10.5852,3.3744 C9.83793095,3.37548327 9.0938777,3.47227068 8.3712,3.6624 C7.5469328,3.88393184 6.75388063,4.20849056 6.0108,4.6284 C8.19344868,2.67578896 10.81602,1.28010346 13.6548,0.5604 C16.4980709,-0.160949805 19.4733595,-0.186059463 22.3284,0.4872 C25.179742,1.15796726 27.8265744,2.50834997 30.0432,4.4232 C32.496782,6.54377441 34.3314948,9.28817299 35.3532,12.366 L35.346,12.3696 L35.3448,12.3696 Z M11.5248,7.18680322 C12.0313311,7.18812816 12.4432153,6.77892893 12.4452,6.2724 C12.4442471,6.02893068 12.3466144,5.79581198 12.1737805,5.62432831 C12.0009466,5.45284465 11.7670693,5.35704335 11.5236,5.3579929 C11.2801307,5.35704335 11.0462534,5.45284465 10.8734195,5.62432831 C10.7005856,5.79581198 10.6029529,6.02893068 10.602,6.2724 C10.602,6.7776 11.0148,7.18680322 11.5236,7.18680322 L11.5248,7.18680322 Z M14.46,20.5548 C16.437934,22.1653757 18.9112803,23.0436574 21.462,23.0412051 C22.2402164,23.0413911 23.016359,22.9609618 23.778,22.8012 C21.0950042,22.4024466 18.5299771,21.4281784 16.2588,19.9452 C13.9941041,18.4667363 12.0778624,16.5136438 10.6428,14.2212 C11.1408248,16.7117243 12.4904904,18.9511255 14.46,20.5548 L14.46,20.5548 Z" id="Shape"></path>
        </g>
    </g>
</svg>