<svg width="45" height="10" viewBox="0 0 45 10" fill="none" xmlns="http://www.w3.org/2000/svg">
<path d="M9.39913 4.53859C9.42059 4.5064 9.43132 4.46348 9.43132 4.43129C9.04506 2.19955 7.09228 0.504272 4.75324 0.504272C2.12449 0.504272 -0.0106893 2.65019 4.02617e-05 5.28966C0.0214994 7.85402 2.17814 9.99993 4.73177 9.99993C6.90987 10.0107 8.74463 8.55144 9.3133 6.56647C9.33476 6.50209 9.29184 6.42699 9.22746 6.3948L9.03433 6.31969C8.27253 6.05145 7.42489 6.14802 6.74893 6.58793C6.43777 6.79179 6.21245 6.95274 6.21245 6.95274C5.82619 7.21025 5.35409 7.37119 4.86053 7.37119C3.51934 7.37119 2.58586 6.27678 2.43565 4.94631L2.32836 4.2167C2.29617 3.99138 2.14595 3.80898 1.93136 3.72314L1.66312 3.61584C1.6202 3.59438 1.59875 3.54074 1.63093 3.49782C2.779 1.96349 4.18457 2.29611 4.18457 2.29611C4.43135 2.31757 4.64594 2.41414 4.81761 2.53216C5.06439 2.70383 5.25752 2.95061 5.37555 3.22958C5.80473 4.2167 6.79185 4.91412 7.93991 4.91412C7.93991 4.91412 9.03433 4.95704 9.39913 4.53859Z" fill="#B9C0CD"/>
<path d="M16.7704 6.52357C16.7704 8.45489 15.3004 9.90338 13.3798 9.90338C11.4592 9.90338 10 8.46562 10 6.52357C10 4.56006 11.4592 3.11157 13.3798 3.11157C15.3111 3.11157 16.7704 4.57079 16.7704 6.52357ZM12.0923 6.52357C12.0923 7.2961 12.6502 7.86476 13.3905 7.86476C14.1416 7.86476 14.6995 7.2961 14.6995 6.52357C14.6995 5.72958 14.1416 5.15019 13.3905 5.15019C12.6502 5.15019 12.0923 5.72958 12.0923 6.52357Z" fill="#B9C0CD"/>
<path d="M23.766 6.7382C23.766 8.59441 22.4678 9.90342 20.6437 9.90342C18.809 9.90342 17.4893 8.59441 17.4893 6.7382V3.24036H19.603V6.7382C19.603 7.42489 20 7.8648 20.633 7.8648C21.2446 7.8648 21.6523 7.42489 21.6523 6.7382V3.24036H23.7553V6.7382H23.766Z" fill="#B9C0CD"/>
<path d="M28.9914 3.18669V5.11801C28.7553 5.07509 28.53 5.04291 28.3154 5.04291C27.4249 5.04291 26.7167 5.50427 26.7167 6.7489V9.76391H24.603V3.24034H26.7167V3.92703C27.103 3.41201 27.6609 3.12231 28.3691 3.12231C28.5622 3.12231 28.7661 3.1545 28.9914 3.18669Z" fill="#B9C0CD"/>
<path d="M32.1242 1.25535C32.1242 1.94204 31.5556 2.52145 30.8689 2.52145C30.1822 2.52145 29.6028 1.94204 29.6028 1.25535C29.6028 0.579391 30.1822 0 30.8689 0C31.5556 0 32.1242 0.579391 32.1242 1.25535ZM31.9096 3.24032V9.7639H29.7959V3.24032H31.9096Z" fill="#B9C0CD"/>
<path d="M39.2273 7.04931H34.5707C34.7317 7.72527 35.2896 8.14372 36.0085 8.14372C36.6415 8.14372 37.0063 7.87548 37.0922 7.52141H39.1737C38.9698 8.95917 37.7467 9.89264 36.0728 9.89264C34.1415 9.89264 32.6287 8.40123 32.6287 6.48064C32.6287 4.57078 34.1093 3.10083 36.0299 3.10083C37.8003 3.10083 39.2703 4.5064 39.2703 6.28751C39.281 6.46991 39.2488 6.81326 39.2273 7.04931ZM37.06 5.71884C37.0063 5.1931 36.502 4.82829 35.9334 4.82829C35.354 4.82829 34.8926 5.09653 34.6673 5.71884H37.06Z" fill="#B9C0CD"/>
<path d="M44.3881 3.18669V5.11801C44.1521 5.07509 43.9268 5.04291 43.7122 5.04291C42.8216 5.04291 42.1135 5.50427 42.1135 6.7489V9.76391H39.9998V3.24034H42.1135V3.92703C42.4997 3.41201 43.0577 3.12231 43.7658 3.12231C43.9697 3.12231 44.1736 3.1545 44.3881 3.18669Z" fill="#B9C0CD"/>
</svg>
