<svg width="55" height="13" viewBox="0 0 55 13" fill="none" xmlns="http://www.w3.org/2000/svg">
<path d="M11.5509 5.56458C11.5772 5.52502 11.5904 5.47228 11.5904 5.43272C11.1157 2.69006 8.71591 0.606689 5.84139 0.606689C2.61085 0.606689 -0.0131364 3.24386 4.94787e-05 6.48759C0.0264212 9.63901 2.67678 12.2762 5.81502 12.2762C8.49175 12.2894 10.7465 10.4961 11.4454 8.05671C11.4718 7.97759 11.419 7.88529 11.3399 7.84573L11.1026 7.75343C10.1664 7.42378 9.12467 7.54246 8.29396 8.08308C7.91157 8.33361 7.63467 8.5314 7.63467 8.5314C7.15998 8.84786 6.5798 9.04565 5.97325 9.04565C4.32502 9.04565 3.17785 7.70069 2.99324 6.06564L2.86139 5.169C2.82183 4.8921 2.63722 4.66794 2.37351 4.56245L2.04386 4.43059C1.99112 4.40422 1.96475 4.33829 2.0043 4.28555C3.41519 2.39997 5.14254 2.80873 5.14254 2.80873C5.44581 2.8351 5.70953 2.95377 5.9205 3.09882C6.22378 3.30979 6.46113 3.61307 6.60617 3.9559C7.13361 5.169 8.34671 6.02608 9.75759 6.02608C9.75759 6.03927 11.1026 6.09201 11.5509 5.56458Z" fill="#586276"/>
<path d="M3.58661 4.16687C3.77595 4.16687 3.92944 4.01337 3.92944 3.82403C3.92944 3.63469 3.77595 3.4812 3.58661 3.4812C3.39727 3.4812 3.24377 3.63469 3.24377 3.82403C3.24377 4.01337 3.39727 4.16687 3.58661 4.16687Z" fill="#586276"/>
<path d="M3.65253 5.94695C3.73164 6.47438 4.15359 8.16218 6.02598 8.46545C6.05236 8.46545 6.06554 8.42589 6.03917 8.41271C5.60404 8.21492 4.47005 7.55563 3.70527 5.92058C3.69208 5.90739 3.65253 5.92058 3.65253 5.94695Z" fill="#586276"/>
<path d="M20.6096 8.01715C20.6096 10.3906 18.8031 12.1707 16.4428 12.1707C14.0826 12.1707 12.2893 10.4038 12.2893 8.01715C12.2893 5.60414 14.0826 3.82405 16.4428 3.82405C18.8163 3.81086 20.6096 5.60414 20.6096 8.01715ZM14.8605 8.01715C14.8605 8.96654 15.5462 9.66539 16.456 9.66539C17.379 9.66539 18.0647 8.96654 18.0647 8.01715C18.0647 7.0414 17.379 6.32936 16.456 6.32936C15.5462 6.31618 14.8605 7.0414 14.8605 8.01715Z" fill="#586276"/>
<path d="M29.2067 8.26771C29.2067 10.5489 27.6113 12.1575 25.3697 12.1575C23.1149 12.1575 21.493 10.5489 21.493 8.26771V3.96912H24.0906V8.26771C24.0906 9.11161 24.5785 9.65223 25.3565 9.65223C26.1081 9.65223 26.6091 9.11161 26.6091 8.26771V3.96912H29.1936V8.26771H29.2067Z" fill="#586276"/>
<path d="M35.6283 3.9164V6.28985C35.3382 6.23711 35.0613 6.19755 34.7976 6.19755C33.7031 6.19755 32.8329 6.76454 32.8329 8.2941V11.9993H30.2353V3.98233H32.8329V4.82622C33.3076 4.1933 33.9932 3.83728 34.8635 3.83728C35.1008 3.83728 35.3514 3.86365 35.6283 3.9164Z" fill="#586276"/>
<path d="M39.4785 1.54293C39.4785 2.38682 38.7797 3.09886 37.9358 3.09886C37.0919 3.09886 36.3799 2.38682 36.3799 1.54293C36.3799 0.712216 37.0919 0.000177049 37.9358 0.000177049C38.7797 -0.0130088 39.4785 0.712216 39.4785 1.54293ZM39.2148 3.98231V11.9993H36.6172V3.98231H39.2148Z" fill="#586276"/>
<path d="M48.2076 8.66331H42.4849C42.6827 9.49402 43.3684 10.0083 44.2518 10.0083C45.0298 10.0083 45.4781 9.67862 45.5836 9.24349H48.1416C47.8911 11.0104 46.3879 12.1576 44.3309 12.1576C41.9575 12.1576 40.0983 10.3247 40.0983 7.96446C40.0983 5.61738 41.9179 3.81091 44.2782 3.81091C46.4539 3.81091 48.2603 5.53826 48.2603 7.72712C48.2735 7.95128 48.2339 8.37322 48.2076 8.66331ZM45.544 7.01508C45.4781 6.36897 44.8584 5.92065 44.1595 5.92065C43.4475 5.92065 42.8805 6.2503 42.6036 7.01508H45.544Z" fill="#586276"/>
<path d="M54.55 3.9164V6.28985C54.2599 6.23711 53.983 6.19755 53.7193 6.19755C52.6249 6.19755 51.7546 6.76454 51.7546 8.2941V11.9993H49.157V3.98233H51.7546V4.82622C52.2293 4.1933 52.915 3.83728 53.7852 3.83728C54.0357 3.83728 54.2863 3.86365 54.55 3.9164Z" fill="#586276"/>
</svg>
