<svg width="35" height="35" viewBox="0 0 35 35" fill="none" xmlns="http://www.w3.org/2000/svg">
<path d="M17.9837 34.5479C13.956 34.5512 10.0514 33.1973 6.9334 30.7163C3.81542 28.2354 1.67645 24.7804 0.879951 20.9386C0.251458 17.928 0.462116 14.8087 1.49008 11.904C2.10772 10.1677 3.01091 8.54039 4.16443 7.08565C4.97419 7.43649 5.71667 7.9189 6.36005 8.51221C6.90767 9.01749 7.38369 9.59149 7.77556 10.2191C8.2749 11.0149 8.64424 11.8813 8.87038 12.7874C7.60514 15.0863 7.3078 17.7738 8.04116 20.2821C8.77452 22.7904 10.4812 24.923 12.8005 26.2296C15.1199 27.5361 17.8704 27.9142 20.471 27.2839C23.0716 26.6537 25.3185 25.0645 26.7372 22.852H26.7432C28.8988 18.854 35.267 19.9868 34.5728 22.852H34.5756C33.4329 26.2504 31.2165 29.2109 28.2426 31.3112C25.2687 33.4114 21.6891 34.5442 18.0144 34.5479H17.9837ZM10.7738 13.9332C12.1536 16.0952 13.9999 17.9394 16.1848 19.3382C18.3697 20.7369 20.841 21.6567 23.4275 22.0339C22.6937 22.1851 21.9456 22.2614 21.1955 22.2615H21.1919C18.733 22.2614 16.3504 21.4312 14.4505 19.9124C12.5505 18.3936 11.2511 16.2803 10.7738 13.9332ZM26.6959 12.1231L26.7009 12.12C25.8295 10.7705 24.6397 9.64297 23.2302 8.83117C21.8207 8.01938 20.2325 7.54678 18.5975 7.45268C17.8152 6.61647 16.9242 5.88308 15.947 5.27104C15.2109 4.8051 14.4205 4.42601 13.5924 4.14177C12.6691 3.8224 11.6972 3.65617 10.7173 3.65001C9.99727 3.65119 9.28043 3.74301 8.58462 3.92316C7.78977 4.13242 7.02545 4.43901 6.30997 4.83561C8.40747 2.9886 10.9356 1.66629 13.6759 0.982899C16.4162 0.299509 19.2862 0.275594 22.0381 0.913221C24.79 1.55085 27.341 2.83084 29.4707 4.64262C31.6005 6.45441 33.2448 8.74349 34.2618 11.3121C34.3688 11.5804 34.4694 11.8486 34.5618 12.12H34.5641L34.571 12.1459L34.5751 12.1584C34.9427 13.669 33.2552 14.6852 31.2819 14.6852C30.3498 14.7068 29.4294 14.4794 28.6209 14.0276C27.8123 13.5758 27.1465 12.9169 26.6959 12.1226V12.1231ZM10.7352 6.37125C10.7353 6.20053 10.7874 6.03367 10.885 5.89177C10.9825 5.74986 11.1211 5.63928 11.2832 5.57401C11.4453 5.50874 11.6237 5.49171 11.7957 5.52507C11.9678 5.55843 12.1258 5.64069 12.2499 5.76143C12.3739 5.88218 12.4583 6.036 12.4925 6.20345C12.5267 6.37089 12.5091 6.54444 12.442 6.70216C12.3748 6.85987 12.2611 6.99467 12.1152 7.08951C11.9693 7.18435 11.7978 7.23497 11.6224 7.23497C11.5058 7.23497 11.3904 7.21262 11.2828 7.16921C11.1751 7.1258 11.0773 7.06217 10.9949 6.98196C10.9125 6.90175 10.8472 6.80653 10.8026 6.70175C10.7581 6.59696 10.7352 6.48465 10.7352 6.37125Z" fill="#9D3789"/>
</svg>
