<svg width="35px" height="35px" viewBox="0 0 35 35" version="1.1" xmlns="http://www.w3.org/2000/svg" xmlns:xlink="http://www.w3.org/1999/xlink">
    <!-- Generator: Sketch 56.2 (81672) - https://sketch.com -->
    <title>Group</title>
    <desc>Created with Sketch.</desc>
    <g id="Page-1" stroke="none" stroke-width="1" fill="none" fill-rule="evenodd">
        <g id="Group" fill="#9121C2" fill-rule="nonzero">
            <path d="M34.7735294,14.9264706 C34.8764706,14.8235294 34.9176471,14.6588235 34.8764706,14.5147059 C33.4352941,6.32058824 26.2911765,0.0823578824 17.6647059,0.0823578824 C7.96764706,0.0823578824 0.123531059,7.96766765 0.205884412,17.6647059 C0.267649118,27.0735294 8.21470588,34.9794118 17.6235294,35.0000592 C25.6117647,35.0205882 32.3647059,29.6676471 34.4647059,22.3588235 C34.5470588,22.1117647 34.4029412,21.8441176 34.1558824,21.7411765 L33.4352941,21.4735294 C30.6352941,20.4852941 27.5264706,20.8352941 25.0352941,22.4617647 C23.9029412,23.2029412 23.0588235,23.8205882 23.0588235,23.8205882 C21.6382353,24.7882353 19.9294118,25.3441176 18.0764706,25.3441176 C13.1558824,25.3441176 9.69705882,21.3294118 9.16176471,16.4294118 L8.77058824,13.7529412 C8.64705882,12.9294118 8.09117647,12.25 7.32941176,11.9411765 L6.32058824,11.55 C6.13529412,11.4882353 6.07352941,11.2617647 6.19705882,11.1176471 C10.4176471,5.47647059 15.5647059,6.71176471 15.5647059,6.71176471 C16.4911765,6.79411765 17.2529412,7.14411765 17.8705882,7.55588235 C18.7970588,8.19409706 19.4970588,9.1 19.95,10.1294118 C21.5352941,13.7735088 25.1588235,16.3058824 29.4,16.3058824 C29.4205882,16.3058824 33.4352941,16.4705882 34.7735294,14.9264706 Z" id="Path"></path>
            <path d="M10.9323529,10.7058824 C11.4895118,10.7058824 11.9411765,10.2542176 11.9411765,9.69705882 C11.9411765,9.1399 11.4895118,8.68823529 10.9323529,8.68823529 C10.3751941,8.68823529 9.92352941,9.1399 9.92352941,9.69705882 C9.92352941,10.2542176 10.3751941,10.7058824 10.9323529,10.7058824 Z" id="Path"></path>
            <path d="M11.1588235,16.0382353 C11.4058824,17.6235294 12.6617647,22.6470588 18.2411765,23.5735294 C18.3235294,23.5941176 18.3647059,23.4705882 18.2823529,23.4294118 C16.9852941,22.8323529 13.6088235,20.8764706 11.2823529,15.9764706 C11.2617647,15.9352941 11.1382353,15.9558824 11.1588235,16.0382353 Z" id="Path"></path>
        </g>
    </g>
</svg>