<?xml version="1.0" encoding="UTF-8"?><svg id="Layer_1" xmlns="http://www.w3.org/2000/svg" viewBox="0 0 20 20"><defs><style>.cls-1{fill:#fff;}</style></defs><path class="cls-1" d="M5.86,.07c-1.06,.05-1.79,.22-2.43,.47-.66,.26-1.21,.6-1.77,1.16-.56,.56-.9,1.12-1.15,1.77-.25,.64-.41,1.36-.46,2.43C0,6.96,0,7.3,0,10.02c0,2.72,.02,3.06,.07,4.12,.05,1.06,.22,1.79,.47,2.43,.26,.66,.6,1.21,1.16,1.77,.56,.55,1.12,.9,1.77,1.15,.64,.25,1.36,.41,2.43,.46,1.07,.05,1.41,.06,4.12,.05,2.72,0,3.06-.02,4.12-.07,1.06-.05,1.79-.22,2.43-.47,.66-.26,1.21-.6,1.77-1.16,.55-.56,.9-1.12,1.15-1.77,.25-.64,.41-1.36,.46-2.43,.05-1.07,.06-1.41,.05-4.12,0-2.72-.02-3.06-.07-4.12-.05-1.06-.22-1.79-.47-2.43-.26-.66-.6-1.21-1.16-1.77-.56-.55-1.12-.9-1.77-1.15-.64-.25-1.36-.41-2.43-.46C13.04,0,12.7,0,9.98,0c-2.72,0-3.06,.02-4.12,.07m.12,18.08c-.97-.04-1.5-.2-1.86-.34-.47-.18-.8-.4-1.15-.75-.35-.35-.57-.68-.75-1.15-.14-.35-.3-.88-.35-1.86-.05-1.05-.06-1.37-.07-4.04,0-2.67,0-2.99,.05-4.04,.04-.97,.2-1.5,.34-1.86,.18-.47,.4-.8,.75-1.15,.35-.35,.68-.57,1.15-.75,.35-.14,.88-.3,1.86-.35,1.05-.05,1.37-.06,4.04-.07,2.67,0,2.99,0,4.04,.05,.97,.04,1.5,.2,1.86,.34,.47,.18,.8,.4,1.15,.75,.35,.35,.57,.68,.75,1.15,.14,.35,.3,.88,.35,1.86,.05,1.05,.06,1.37,.07,4.04,0,2.67,0,2.99-.05,4.04-.04,.97-.2,1.5-.34,1.86-.18,.47-.4,.8-.75,1.15-.35,.35-.68,.57-1.15,.75-.35,.14-.88,.3-1.86,.35-1.05,.05-1.37,.06-4.04,.07-2.67,0-2.99,0-4.04-.05M14.13,4.65c0,.66,.54,1.2,1.2,1.2,.66,0,1.2-.54,1.2-1.2,0-.66-.54-1.2-1.2-1.2s-1.2,.54-1.2,1.2M4.87,10.01c0,2.84,2.31,5.13,5.14,5.12,2.84,0,5.13-2.31,5.13-5.14,0-2.84-2.31-5.13-5.15-5.12-2.84,0-5.13,2.31-5.12,5.14m1.8,0c0-1.84,1.49-3.34,3.33-3.34,1.84,0,3.34,1.49,3.34,3.33,0,1.84-1.49,3.34-3.33,3.34-1.84,0-3.34-1.49-3.34-3.33"/></svg>