<?xml version="1.0" encoding="UTF-8"?><svg id="Layer_1" xmlns="http://www.w3.org/2000/svg" viewBox="0 0 20 20"><defs><style>.cls-1{fill:#fff;}</style></defs><path class="cls-1" d="M18.54,0H1.46C.65,0,0,.65,0,1.46V18.54c0,.81,.65,1.46,1.46,1.46H18.54c.81,0,1.46-.65,1.46-1.46V1.46c0-.81-.65-1.46-1.46-1.46ZM5.83,17.08H2.92V7.5h2.92v9.58Zm.25-12.65s0,0,0,0c-.02,.92-.79,1.65-1.71,1.62h-.02c-.94-.01-1.7-.79-1.69-1.73,.01-.94,.79-1.7,1.73-1.69,.94,.01,1.7,.79,1.69,1.73v.06Zm11,12.65h-2.92v-5.04c0-1.54-.85-2.18-1.69-2.18-1.02,0-2.06,.68-2.06,2.22v5h-2.92V7.5h2.75v1.35h.04c.28-.59,1.52-1.56,3.19-1.56s3.6,1.13,3.6,4.05v5.74Z"/></svg>