<?xml version="1.0" encoding="UTF-8"?><svg id="Layer_1" xmlns="http://www.w3.org/2000/svg" viewBox="0 0 20 20"><defs><style>.cls-1{fill:#fff;}</style></defs><g id="Layer_2"><g id="Symbol"><path class="cls-1" d="M11.28,10.02c0,3.14-2.53,5.68-5.64,5.68S0,13.16,0,10.02,2.53,4.34,5.64,4.34s5.64,2.54,5.64,5.68"/><path class="cls-1" d="M17.47,10.02c0,2.95-1.26,5.35-2.82,5.35s-2.82-2.39-2.82-5.35,1.26-5.35,2.82-5.35,2.82,2.39,2.82,5.35"/><path class="cls-1" d="M20,10.02c0,2.64-.44,4.79-.99,4.79s-.99-2.14-.99-4.79,.44-4.79,.99-4.79,.99,2.14,.99,4.79"/></g></g></svg>