<?xml version="1.0" encoding="UTF-8"?><svg id="Layer_1" xmlns="http://www.w3.org/2000/svg" viewBox="0 0 20 20"><defs><style>.cls-1{fill:#fff;}</style></defs><path class="cls-1" d="M10,0C4.48,0,0,4.48,0,10s4.48,10,10,10,10-4.48,10-10S15.52,0,10,0Zm5.02,8.11c0,.1,0,.2,0,.31,0,3.18-2.42,6.86-6.86,6.86-1.36,0-2.63-.4-3.69-1.09,.19,.02,.38,.04,.58,.04,1.13,0,2.17-.39,3-1.03-1.05-.02-1.95-.71-2.25-1.67,.15,.03,.3,.04,.45,.04,.22,0,.44-.03,.64-.08-1.1-.23-1.94-1.2-1.94-2.37v-.03c.32,.18,.7,.29,1.09,.3-.65-.43-1.08-1.17-1.08-2,0-.44,.12-.86,.33-1.21,1.19,1.46,2.96,2.42,4.97,2.52-.05-.18-.06-.36-.06-.55,0-1.33,1.08-2.41,2.41-2.41,.69,0,1.32,.29,1.76,.76,.55-.11,1.07-.31,1.53-.58-.18,.56-.56,1.03-1.06,1.33,.49-.06,.95-.19,1.39-.38-.32,.49-.74,.91-1.21,1.25Z"/></svg>