<?xml version="1.0" encoding="UTF-8"?>
<svg width="15px" height="15px" viewBox="0 0 15 15" version="1.1" xmlns="http://www.w3.org/2000/svg" xmlns:xlink="http://www.w3.org/1999/xlink">
    <title>close</title>
    <g id="Page-1" stroke="none" stroke-width="1" fill="none" fill-rule="evenodd">
        <g id="close" fill="#9D3789">
            <path d="M0.29289,0.29289 C-0.09763,0.68342 -0.09763,1.31658 0.29289,1.70711 L5.9498,7.364 L0.29289,13.021 C-0.09763,13.4115 -0.09763,14.0447 0.29289,14.4352 C0.68342,14.8257 1.31658,14.8257 1.70711,14.4352 L7.364,8.7782 L13.0208,14.435 C13.4113,14.8256 14.0445,14.8256 14.435,14.435 C14.8256,14.0445 14.8256,13.4113 14.435,13.0208 L8.7783,7.364 L14.435,1.70726 C14.8256,1.31673 14.8256,0.68357 14.435,0.29304 C14.0445,-0.09748 13.4113,-0.09748 13.0208,0.29304 L7.364,5.9498 L1.70711,0.29289 C1.31658,-0.09763 0.68342,-0.09763 0.29289,0.29289 Z" id="Path"></path>
        </g>
    </g>
</svg>