<svg width="25px" height="25px" viewBox="0 0 25 25" version="1.1" xmlns="http://www.w3.org/2000/svg" xmlns:xlink="http://www.w3.org/1999/xlink">
    <g id="Page-1" stroke="none" stroke-width="1" fill="none" fill-rule="evenodd">
        <g id="Group" fill="#9D3789" fill-rule="nonzero">
            <path d="M12.8455,24.6770757 C9.96857143,24.6794286 7.17957143,23.7123571 4.95242857,21.9402143 C2.7253,20.1681429 1.19746429,17.7002857 0.628536429,14.9561429 C0.179612857,12.8057143 0.330082857,10.5776429 1.06434286,8.50285714 C1.50551429,7.26264286 2.15065,6.10027857 2.97459286,5.06117857 C3.55299286,5.31177857 4.08333571,5.65635714 4.54289286,6.08015 C4.93405,6.44106429 5.27406429,6.85106429 5.55397143,7.29935714 C5.91064286,7.86778571 6.17445714,8.48664286 6.33598571,9.13385714 C5.43224286,10.7759286 5.21985714,12.6955714 5.74368571,14.4872143 C6.26751429,16.2788571 7.48657143,17.8021429 9.14321429,18.7354286 C10.7999286,19.6686429 12.7645714,19.9387143 14.6221429,19.4885 C16.4797143,19.0383571 18.0846429,17.9032143 19.098,16.3228571 L19.1022857,16.3228571 C20.642,13.4671429 25.1907143,14.2762857 24.6948571,16.3228571 L24.6968571,16.3228571 C23.8806429,18.7502857 22.2975,20.8649286 20.1732857,22.3651429 C18.0490714,23.8652857 15.4922143,24.6744286 12.8674286,24.6770757 L12.8455,24.6770757 Z M7.69557143,9.95228571 C8.68114286,11.4965714 9.99992857,12.8138571 11.5605714,13.813 C13.1212143,14.8120714 14.8864286,15.4690714 16.7339286,15.7385 C16.2097857,15.8465 15.6754286,15.901 15.1396429,15.9010714 L15.1370714,15.9010714 C13.3807143,15.901 11.6788571,15.308 10.3217857,14.2231429 C8.96464286,13.1382857 8.0365,11.6287857 7.69557143,9.95228571 Z M19.0685,8.65935714 L19.0720714,8.65714286 C18.4496429,7.69321429 17.5997857,6.88783571 16.593,6.30797857 C15.5862143,5.72812857 14.4517857,5.39055714 13.2839286,5.32334286 C12.7251429,4.72605 12.0887143,4.2022 11.3907143,3.76502857 C10.8649286,3.43221429 10.3003571,3.16143571 9.70885714,2.95840714 C9.04935714,2.73028571 8.35514286,2.61155 7.65521429,2.60715 C7.14090714,2.60799286 6.62887857,2.67357857 6.13187143,2.80225714 C5.56412143,2.95172857 5.01817857,3.17072143 4.50712143,3.45400714 C6.00533571,2.13471429 7.81114286,1.19020714 9.7685,0.702070714 C11.7258571,0.213935 13.7758571,0.196852857 15.7415,0.652300714 C17.7071429,1.10775 19.5292857,2.02202857 21.0505,3.31615714 C22.5717857,4.61029286 23.7462857,6.24535 24.4727143,8.08007143 C24.5491429,8.27171429 24.621,8.46328571 24.687,8.65714286 L24.6886429,8.65714286 L24.6935714,8.67564286 L24.6965,8.68457143 C24.9590714,9.76357143 23.7537143,10.4894286 22.3442143,10.4894286 C21.6784286,10.5048571 21.021,10.3424286 20.4435,10.0197143 C19.8659286,9.697 19.3903571,9.22635714 19.0685,8.659 L19.0685,8.65935714 Z M7.668,4.55089286 C7.66807143,4.42895 7.70528571,4.30976429 7.775,4.20840714 C7.84464286,4.10704286 7.94364286,4.02805714 8.05942857,3.98143571 C8.17521429,3.93481429 8.30264286,3.92265 8.4255,3.94647857 C8.54842857,3.97030714 8.66128571,4.02906429 8.74992857,4.11530714 C8.8385,4.20155714 8.89878571,4.31142857 8.92321429,4.43103571 C8.94764286,4.55063571 8.93507143,4.6746 8.88714286,4.78725714 C8.83914286,4.89990714 8.75792857,4.99619286 8.65371429,5.06393571 C8.5495,5.13167857 8.427,5.16783571 8.30171429,5.16783571 C8.21842857,5.16783571 8.136,5.15187143 8.05914286,5.12086429 C7.98221429,5.08985714 7.91235714,5.04440714 7.8535,4.98711429 C7.79464286,4.92982143 7.748,4.86180714 7.71614286,4.78696429 C7.68435714,4.71211429 7.668,4.63189286 7.668,4.55089286 Z" id="Shape"></path>
        </g>
    </g>
</svg>