<?xml version="1.0" encoding="UTF-8"?>
<svg width="36" height="36" viewBox="0 0 36 36" fill="none" xmlns="http://www.w3.org/2000/svg">
<g clip-path="url(#clip0_1901_6059)">
<path d="M35.6398 15.3042C35.7459 15.1981 35.7884 15.0283 35.7459 14.8797C34.2601 6.43159 26.8945 0 18.0006 0C8.00301 0 -0.0842431 8.12971 0.000662482 18.1273C0.0643416 27.8278 8.25772 35.9787 17.9582 35.9999C26.194 36.0212 33.1563 30.5023 35.3214 22.9669C35.4063 22.7122 35.2577 22.4363 35.003 22.3301L34.2601 22.0542C31.3733 21.0354 28.1681 21.3962 25.5997 23.0731C24.4322 23.8372 23.5619 24.474 23.5619 24.474C22.0973 25.4716 20.3355 26.0448 18.4252 26.0448C13.3521 26.0448 9.78603 21.9056 9.23414 16.8538L8.83083 14.0943C8.70347 13.2453 8.13036 12.5448 7.34499 12.2264L6.3049 11.8231C6.11386 11.7594 6.05018 11.5259 6.17754 11.3773C10.5289 5.56131 15.8355 6.83488 15.8355 6.83488C16.7907 6.91979 17.5761 7.28063 18.2129 7.70516C19.1681 8.36318 19.8898 9.29714 20.3568 10.3585C21.9912 14.1155 25.727 16.7264 30.0997 16.7264C30.1209 16.7264 34.2601 16.8962 35.6398 15.3042Z" fill="#9121C2"/>
<path d="M11.0596 10.9528C11.634 10.9528 12.0997 10.4871 12.0997 9.91266C12.0997 9.33823 11.634 8.87256 11.0596 8.87256C10.4852 8.87256 10.0195 9.33823 10.0195 9.91266C10.0195 10.4871 10.4852 10.9528 11.0596 10.9528Z" fill="#9121C2"/>
<path d="M11.2931 16.4504C11.5478 18.0848 12.8426 23.2641 18.595 24.2192C18.6799 24.2405 18.7223 24.1131 18.6374 24.0707C17.3002 23.4551 13.819 21.4386 11.4205 16.3867C11.3992 16.3442 11.2719 16.3655 11.2931 16.4504Z" fill="#9121C2"/>
</g>
<defs>
<clipPath id="clip0_1901_6059">
<rect width="36" height="36" fill="white" transform="translate(0.000244141)"/>
</clipPath>
</defs>
</svg>