<svg width="170" height="170" viewBox="0 0 170 170" fill="none" xmlns="http://www.w3.org/2000/svg">
<path d="M168.9 72.5C169.4 72 169.6 71.2 169.4 70.5C162.4 30.7 127.7 0.400024 85.8 0.400024C38.7 0.400024 0.600008 38.7001 1.00001 85.8C1.30001 131.5 39.9 169.9 85.6 170C124.4 170.1 157.2 144.1 167.4 108.6C167.8 107.4 167.1 106.1 165.9 105.6L162.4 104.3C148.8 99.5 133.7 101.2 121.6 109.1C116.1 112.7 112 115.7 112 115.7C105.1 120.4 96.8 123.1 87.8 123.1C63.9 123.1 47.1 103.6 44.5 79.8L42.6 66.8C42 62.8 39.3 59.5 35.6 58L30.7 56.1C29.8 55.8 29.5 54.7 30.1 54C50.6 26.6 75.6 32.6 75.6 32.6C80.1 33 83.8 34.7 86.8 36.7C91.3 39.7999 94.7 44.2 96.9 49.2C104.6 66.8999 122.2 79.2 142.8 79.2C142.9 79.2 162.4 80 168.9 72.5Z" fill="#9121C2"/>
<path d="M53.1 52C55.8062 52 58 49.8062 58 47.1C58 44.3938 55.8062 42.2 53.1 42.2C50.3938 42.2 48.2 44.3938 48.2 47.1C48.2 49.8062 50.3938 52 53.1 52Z" fill="#9121C2"/>
<path d="M54.2 77.9C55.4 85.6 61.5 110 88.6 114.5C89 114.6 89.2 114 88.8 113.8C82.5 110.9 66.1 101.4 54.8 77.6C54.7 77.4 54.1 77.5 54.2 77.9Z" fill="#9121C2"/>
</svg>
