<?xml version="1.0" encoding="UTF-8"?>
<svg width="25px" height="25px" viewBox="0 0 25 25" version="1.1" xmlns="http://www.w3.org/2000/svg" xmlns:xlink="http://www.w3.org/1999/xlink">
    <!-- Generator: Sketch 56.2 (81672) - https://sketch.com -->
    <title>Group</title>
    <desc>Created with Sketch.</desc>
    <g id="Page-1" stroke="none" stroke-width="1" fill="none" fill-rule="evenodd">
        <g id="Group" fill="#9121C2" fill-rule="nonzero">
            <path d="M24.8382353,10.6617647 C24.9117647,10.5882353 24.9411765,10.4705882 24.9117647,10.3676471 C23.8823529,4.51470588 18.7794118,0.0588270588 12.6176471,0.0588270588 C5.69117647,0.0588270588 0.0882364706,5.69119118 0.147060294,12.6176471 C0.191177941,19.3382353 5.86764706,24.9852941 12.5882353,25.0000423 C18.2941176,25.0147059 23.1176471,21.1911765 24.6176471,15.9705882 C24.6764706,15.7941176 24.5735294,15.6029412 24.3970588,15.5294118 L23.8823529,15.3382353 C21.8823529,14.6323529 19.6617647,14.8823529 17.8823529,16.0441176 C17.0735294,16.5735294 16.4705882,17.0147059 16.4705882,17.0147059 C15.4558824,17.7058824 14.2352941,18.1029412 12.9117647,18.1029412 C9.39705882,18.1029412 6.92647059,15.2352941 6.54411765,11.7352941 L6.26470588,9.82352941 C6.17647059,9.23529412 5.77941176,8.75 5.23529412,8.52941176 L4.51470588,8.25 C4.38235294,8.20588235 4.33823529,8.04411765 4.42647059,7.94117647 C7.44117647,3.91176471 11.1176471,4.79411765 11.1176471,4.79411765 C11.7794118,4.85294118 12.3235294,5.10294118 12.7647059,5.39705882 C13.4264706,5.85292647 13.9264706,6.5 14.25,7.23529412 C15.3823529,9.83822059 17.9705882,11.6470588 21,11.6470588 C21.0147059,11.6470588 23.8823529,11.7647059 24.8382353,10.6617647 Z" id="Path"></path>
            <path d="M7.80882353,7.64705882 C8.20679412,7.64705882 8.52941176,7.32444118 8.52941176,6.92647059 C8.52941176,6.5285 8.20679412,6.20588235 7.80882353,6.20588235 C7.41085294,6.20588235 7.08823529,6.5285 7.08823529,6.92647059 C7.08823529,7.32444118 7.41085294,7.64705882 7.80882353,7.64705882 Z" id="Path"></path>
            <path d="M7.97058824,11.4558824 C8.14705882,12.5882353 9.04411765,16.1764706 13.0294118,16.8382353 C13.0882353,16.8529412 13.1176471,16.7647059 13.0588235,16.7352941 C12.1323529,16.3088235 9.72058824,14.9117647 8.05882353,11.4117647 C8.04411765,11.3823529 7.95588235,11.3970588 7.97058824,11.4558824 Z" id="Path"></path>
        </g>
    </g>
</svg>