<svg class='settings'
  xmlns="http://www.w3.org/2000/svg" width="32" height="32" viewBox="0 0 32 32">
  <path d="M177.011-45h0a.9.9,0,0,1-.569-.329.99.99,0,0,1-.246-.661.415.415,0,0,0-.09-.266.408.408,0,0,0-.238-.146,8.106,8.106,0,0,1-1.805-.743h-.492a.913.913,0,0,1-.3.211.907.907,0,0,1-.358.076.9.9,0,0,1-.574-.206l-.657-.578-.164-.165-.574-.661a.931.931,0,0,1-.165-.579.986.986,0,0,1,.247-.66.415.415,0,0,0,.124-.234.415.415,0,0,0-.042-.262,8.1,8.1,0,0,1-.739-1.817.412.412,0,0,0-.142-.237.407.407,0,0,0-.256-.093h-.012a.9.9,0,0,1-.611-.237.909.909,0,0,1-.293-.59,9.251,9.251,0,0,1,0-1.982.91.91,0,0,1,.329-.578.976.976,0,0,1,.649-.247h.015a.408.408,0,0,0,.259-.094.413.413,0,0,0,.143-.237,8.078,8.078,0,0,1,.738-1.817.415.415,0,0,0-.082-.248.9.9,0,0,1-.284-.6.909.909,0,0,1,.2-.635l.574-.661.165-.166.656-.578.575-.165h.034a.9.9,0,0,1,.622.247.408.408,0,0,0,.137.1.405.405,0,0,0,.164.034.423.423,0,0,0,.193-.048,7.928,7.928,0,0,1,1.805-.743.41.41,0,0,0,.238-.147.415.415,0,0,0,.09-.266.91.91,0,0,1,.176-.642.9.9,0,0,1,.563-.349h1.969a.9.9,0,0,1,.575.33.994.994,0,0,1,.246.661.416.416,0,0,0,.09.266.414.414,0,0,0,.239.147,8.021,8.021,0,0,1,1.805.743h.492a.92.92,0,0,1,.3-.213.907.907,0,0,1,.358-.076.906.906,0,0,1,.574.205l.657.578.164.165.574.661a.927.927,0,0,1,.165.578,1,1,0,0,1-.247.661.414.414,0,0,0-.124.233.415.415,0,0,0,.042.262,8.124,8.124,0,0,1,.739,1.817.413.413,0,0,0,.143.238.408.408,0,0,0,.26.093h.02a.885.885,0,0,1,.6.237.9.9,0,0,1,.288.589,9.024,9.024,0,0,1,0,1.982.9.9,0,0,1-.328.578.984.984,0,0,1-.653.248h-.015a.417.417,0,0,0-.26.093.417.417,0,0,0-.142.238,8.056,8.056,0,0,1-.739,1.816.417.417,0,0,0,.082.247.908.908,0,0,1,.284.6.909.909,0,0,1-.2.636l-.574.66-.164.166-.657.578-.574.166H183a.981.981,0,0,1-.65-.248.4.4,0,0,0-.136-.1.412.412,0,0,0-.164-.034.414.414,0,0,0-.193.048,8.053,8.053,0,0,1-1.805.743.409.409,0,0,0-.239.146.416.416,0,0,0-.09.266.9.9,0,0,1-.233.617.9.9,0,0,1-.588.292h-1.887V-45ZM178-58a4,4,0,0,0-4,4,4,4,0,0,0,4,4,4,4,0,0,0,4-4A4,4,0,0,0,178-58Z" transform="translate(-162 70)" fill="#73819B"/>
</svg>
