  <svg
    xmlns="http://www.w3.org/2000/svg"
    width="91"
    height="55.779"
    viewBox="0 0 91 55.779"
  >
    <defs>
      <linearGradient
        id="a"
        x1="0.5"
        x2="0.5"
        y2="1"
        gradientUnits="objectBoundingBox"
      >
        <stop offset="0" stopColor="#9121C2" />
        <stop offset="1" stopColor="#fff" stopOpacity="0" />
      </linearGradient>
      <linearGradient id="b" y1="-0.18" x2="0.487" y2="0.657" href="#a" />
    </defs>
    <g transform="translate(-198 -1047)">
      <path
        fill="url(#a)"
        opacity="0.63"
        d="M2570.558,1061.678v4.582l-5.025-1.826Z"
        transform="translate(-2301.682 16.801)"
      />
      <path
        fill="url(#b)"
        opacity="0.63"
        d="M2597.44,1061.394v16.7l-88.334-12.88,82.714-.288Z"
        transform="translate(-2308.44 24.684)"
      />
      <g transform="translate(198 1047)">
        <path
          class="running-man"
          fill="#9121C2"
          d="M15.586,27H14.23a.676.676,0,0,1-.677-.674V19.372a1.058,1.058,0,0,0-.448-.851l-5.828-3.86a1.348,1.348,0,0,1-.325-1.931l.217-.3L10.45,8.1h-2.1a1.055,1.055,0,0,0-.827.4L5.557,11.2a.665.665,0,0,1-.95.148l-1.084-.782a.675.675,0,0,1-.163-.945L5.638,6.508A2.723,2.723,0,0,1,7.82,5.4h4.147A5.424,5.424,0,0,1,16.1,7.3l3.009,3.5a1.359,1.359,0,0,0,.773.486l2.615.526a.675.675,0,0,1,.5.676v1.35a.668.668,0,0,1-.25.522.674.674,0,0,1-.564.139l-2.874-.566a4.088,4.088,0,0,1-2.3-1.35l-1.694-2L12.2,14.7l2.859,1.944A2.694,2.694,0,0,1,16.264,18.9v7.425A.677.677,0,0,1,15.586,27ZM5.624,21.6H.678A.678.678,0,0,1,0,20.925v-1.35A.677.677,0,0,1,.678,18.9H5.109a1.015,1.015,0,0,0,.813-.406l.935-1.268,2.29,1.5-1.355,1.8A2.727,2.727,0,0,1,5.624,21.6ZM17.619,5.4a2.7,2.7,0,1,1,2.71-2.7A2.708,2.708,0,0,1,17.619,5.4Z"
          transform="translate(9 8)"
        />
      </g>
      <path
        class="cliff"
        fill="none"
        stroke="#9121C2"
        opacity="0.635"
        d="M2566.693,1058.825s30.177.878,32.517,2.891-5.15,2.986-3.509,4.353,17.087,2.7,22.28,3.259-2.073,3.86-3.2,3.97-83.11,0-83.11,0"
        transform="translate(-2331.449 15.861)"
      />
    </g>
  </svg>
