<?xml version="1.0" encoding="utf-8"?>
<svg width="12px" height="12px" viewBox="0 0 32 32" xmlns="http://www.w3.org/2000/svg" xmlns:xlink="http://www.w3.org/1999/xlink">
  <defs>
    <clipPath id="clip-thumbtack">
      <rect width="32" height="32"/>
    </clipPath>
  </defs>
  <g id="thumbtack" clip-path="url(#clip-thumbtack)">
    <g id="Group_3228" dataName="Group 3228" transform="translate(-468 -52)">
      <g id="Group_3203" dataName="Group 3203">
        <g id="Group_3202" dataName="Group 3202">
          <g id="Group_3201" dataName="Group 3201">
            <path id="Path_4006" dataName="Path 4006" d="M469.25,83.313a.5.5,0,0,1-.449-.718l2.268-4.663a.5.5,0,0,1,.1-.135l5.964-5.964a.5.5,0,0,1,.707,0l2.394,2.395a.5.5,0,0,1,0,.707L474.267,80.9a.5.5,0,0,1-.135.1l-4.663,2.268A.5.5,0,0,1,469.25,83.313Zm2.682-4.869-1.6,3.286,3.286-1.6,5.551-5.551-1.688-1.687Z" fill="#344952"/>
          </g>
        </g>
      </g>
      <g id="Group_3206" dataName="Group 3206">
        <g id="Group_3205" dataName="Group 3205">
          <g id="Group_3204" dataName="Group 3204">
            <path id="Path_4007" dataName="Path 4007" d="M495.169,66.329a1,1,0,0,1-.707-.293L485.9,57.474a1,1,0,0,1-.234-1.043l1.278-3.581a1,1,0,0,1,1.649-.371l10.864,10.865a1,1,0,0,1-.371,1.649l-3.581,1.278A1,1,0,0,1,495.169,66.329Zm-7.407-9.822,7.667,7.667,1.5-.533-8.629-8.63Z" fill="#344952"/>
          </g>
        </g>
      </g>
      <g id="Group_3209" dataName="Group 3209">
        <g id="Group_3208" dataName="Group 3208">
          <g id="Group_3207" dataName="Group 3207">
            <path id="Path_4008" dataName="Path 4008" d="M469.25,83.313a.5.5,0,0,1-.449-.718l2.268-4.663a.5.5,0,0,1,.1-.135l5.964-5.964a.5.5,0,0,1,.707,0l2.394,2.395a.5.5,0,0,1,0,.707L474.267,80.9a.5.5,0,0,1-.135.1l-4.663,2.268A.5.5,0,0,1,469.25,83.313Zm2.682-4.869-1.6,3.286,3.286-1.6,5.551-5.551-1.688-1.687Z" fill="#344952"/>
          </g>
        </g>
      </g>
      <g id="Group_3212" dataName="Group 3212">
        <g id="Group_3211" dataName="Group 3211">
          <g id="Group_3210" dataName="Group 3210">
            <path id="Path_4009" dataName="Path 4009" d="M495.169,66.329a1,1,0,0,1-.707-.293L485.9,57.474a1,1,0,0,1-.234-1.043l1.278-3.581a1,1,0,0,1,1.649-.371l10.864,10.865a1,1,0,0,1-.371,1.649l-3.581,1.278A1,1,0,0,1,495.169,66.329Zm-7.407-9.822,7.667,7.667,1.5-.533-8.629-8.63Z" fill="#344952"/>
          </g>
        </g>
      </g>
      <g id="Group_3215" dataName="Group 3215">
        <g id="Group_3214" dataName="Group 3214">
          <g id="Group_3213" dataName="Group 3213">
            <path id="Path_4010" dataName="Path 4010" d="M484.834,80.537a1,1,0,0,1-.707-.293L471.819,67.937a1,1,0,0,1,0-1.414,5.082,5.082,0,0,1,7.172,0l6.55,6.55a5.076,5.076,0,0,1,0,7.171A1,1,0,0,1,484.834,80.537ZM474.059,67.349,484.716,78a3.079,3.079,0,0,0-.589-3.518l-6.55-6.55A3.152,3.152,0,0,0,474.059,67.349Z" fill="#344952"/>
          </g>
        </g>
      </g>
      <g id="Group_3218" dataName="Group 3218">
        <g id="Group_3217" dataName="Group 3217">
          <g id="Group_3216" dataName="Group 3216">
            <rect id="Rectangle_10" dataName="Rectangle 10" width="13.878" height="1.999" transform="translate(475.949 65.421) rotate(-38.057)" fill="#344952"/>
          </g>
        </g>
      </g>
      <g id="Group_3221" dataName="Group 3221">
        <g id="Group_3220" dataName="Group 3220">
          <g id="Group_3219" dataName="Group 3219">
            <rect id="Rectangle_11" dataName="Rectangle 11" width="13.879" height="2" transform="translate(484.939 74.753) rotate(-51.921)" fill="#344952"/>
          </g>
        </g>
      </g>
      <g id="Group_3224" dataName="Group 3224">
        <g id="Group_3223" dataName="Group 3223">
          <g id="Group_3222" dataName="Group 3222">
            <path id="Path_4011" dataName="Path 4011" d="M488.385,64.052a.5.5,0,0,1-.354-.147l-3.7-3.7a.5.5,0,1,1,.707-.707l3.7,3.7a.5.5,0,0,1-.353.854Z" fill="#344952"/>
          </g>
        </g>
      </g>
      <g id="Group_3227" dataName="Group 3227">
        <g id="Group_3226" dataName="Group 3226">
          <g id="Group_3225" dataName="Group 3225">
            <path id="Path_4012" dataName="Path 4012" d="M488.282,72.784a.5.5,0,0,1-.353-.147l-3.7-3.7a.5.5,0,1,1,.707-.708l3.7,3.7a.5.5,0,0,1-.354.854Z" fill="#344952"/>
          </g>
        </g>
      </g>
    </g>
  </g>
</svg>